<svg width="60" height="61" viewBox="0 0 60 61" fill="none" xmlns="http://www.w3.org/2000/svg">
<rect y="0.5" width="60" height="60" rx="8" fill="url(#paint0_radial_77_1886)" fill-opacity="0.2"/>
<path d="M29.9998 15.8335C23.7502 15.8335 18.6665 20.8667 18.6665 27.0542C18.6665 29.0698 19.6253 31.6128 21.5901 34.8296C23.2235 37.5015 25.2475 40.1558 27.0289 42.4937C27.8515 43.5718 28.6268 44.5913 29.2246 45.4351C29.4021 45.687 29.6921 45.8335 29.9998 45.8335C30.3076 45.8335 30.5976 45.687 30.7751 45.4351C31.3729 44.5913 32.1481 43.5718 32.9708 42.4937C34.7521 40.1558 36.7702 37.5015 38.4096 34.8296C40.3744 31.6128 41.3332 29.0698 41.3332 27.0542C41.3332 20.8667 36.2494 15.8335 29.9998 15.8335ZM29.9998 32.2397C27.1118 32.2397 24.7622 29.9136 24.7622 27.0542C24.7622 24.1948 27.1118 21.8687 29.9998 21.8687C32.8879 21.8687 35.2374 24.1948 35.2374 27.0542C35.2374 29.9136 32.8879 32.2397 29.9998 32.2397Z" fill="#049219"/>
<defs>
<radialGradient id="paint0_radial_77_1886" cx="0" cy="0" r="1" gradientUnits="userSpaceOnUse" gradientTransform="translate(30 30.5) rotate(90) scale(30)">
<stop stop-color="white"/>
<stop offset="1" stop-color="#049219"/>
</radialGradient>
</defs>
</svg>
