<svg width="60" height="60" viewBox="0 0 60 60" fill="none" xmlns="http://www.w3.org/2000/svg">
<rect width="60" height="60" rx="8" fill="url(#paint0_radial_77_1892)" fill-opacity="0.2"/>
<path d="M44.0312 38.5639C43.6246 38.1098 42.3742 36.9778 41.4789 36.3034C40.6 35.6125 39.1603 34.6779 38.5996 34.3885C37.6838 33.9121 36.3039 33.9654 35.4467 34.5414C34.7422 35.0317 34.0897 35.5928 33.4996 36.2161L33.4867 36.2295C33.1644 36.5701 32.7316 36.785 32.2655 36.836C31.7994 36.887 31.3303 36.7707 30.942 36.5079C29.4819 35.5122 28.1192 34.3808 26.8721 33.1287C25.62 31.8815 24.4886 30.5188 23.493 29.0587C23.2302 28.6704 23.1139 28.2013 23.1648 27.7352C23.2158 27.2691 23.4308 26.8362 23.7713 26.5139L23.7848 26.501C24.408 25.9109 24.9692 25.2585 25.4594 24.5539C26.0354 23.6967 26.0887 22.3168 25.6123 21.4009C25.3229 20.8408 24.3883 19.4028 23.6975 18.5216C23.0225 17.6263 21.891 16.3758 21.4369 15.9692C20.6957 15.3012 19.4436 15.1272 18.57 15.603C17.8361 16.0197 17.1487 16.5134 16.5192 17.0755L16.453 17.1341C12.5905 20.457 15.1334 29.7319 22.7067 37.2907C30.2693 44.8652 39.5418 47.41 42.8646 43.5474L42.9232 43.4812C43.4855 42.8519 43.9791 42.1644 44.3957 41.4304C44.8732 40.5573 44.6992 39.3052 44.0312 38.5639Z" fill="#049219"/>
<defs>
<radialGradient id="paint0_radial_77_1892" cx="0" cy="0" r="1" gradientUnits="userSpaceOnUse" gradientTransform="translate(30 30) rotate(90) scale(30)">
<stop stop-color="white"/>
<stop offset="1" stop-color="#049219"/>
</radialGradient>
</defs>
</svg>
