<svg width="18" height="18" viewBox="0 0 18 18" fill="none" xmlns="http://www.w3.org/2000/svg">
<path d="M3.9375 5.0625H0V18H3.9375V5.0625Z" fill="white"/>
<path d="M13.5017 5.0625C11.25 5.0625 10.6256 5.8005 10.125 6.75V5.0625H6.1875V18H10.125V10.6875C10.125 9.5625 10.125 8.4375 12.0938 8.4375C14.0625 8.4375 14.0625 9.5625 14.0625 10.6875V18H18V10.6875C18 7.3125 17.4375 5.0625 13.5017 5.0625Z" fill="white"/>
<path d="M1.9688 3.9375C3.0561 3.9375 3.9375 3.0561 3.9375 1.9688C3.9375 0.8814 3.0561 0 1.9688 0C0.8814 0 0 0.8814 0 1.9688C0 3.0561 0.8814 3.9375 1.9688 3.9375Z" fill="white"/>
</svg>
